<svg xmlns="http://www.w3.org/2000/svg" xmlns:xlink="http://www.w3.org/1999/xlink" width="228" height="126" viewBox="0 0 228 126"><defs><style>.a{fill:#fff;}.b,.f,.g{fill:#333232;}.b{font-size:16px;}.b,.e{font-family:ShreeDev0714-Bold, 'Shree Devanagari 714';font-weight:700;}.c{fill:#e0eafe;}.d,.e{fill:#9f9f9f;font-size:10px;}.d{font-family:HelveticaNeue, Helvetica Neue;}.f{font-size:12px;}.f,.g{font-family:ShreeDev0714, 'Shree Devanagari 714';}.g{font-size:14px;}.h{fill:#d1d1d1;}.h,.i{stroke:#707070;}.i,.k{fill:none;}.j{stroke:none;}.l{filter:url(#a);}</style><filter id="a" x="0" y="0" width="228" height="126" filterUnits="userSpaceOnUse"><feOffset dx="5" dy="5" input="SourceAlpha"/><feGaussianBlur stdDeviation="5" result="b"/><feFlood flood-opacity="0.161"/><feComposite operator="in" in2="b"/><feComposite in="SourceGraphic"/></filter></defs><g transform="translate(-26 -447)"><g class="l" transform="matrix(1, 0, 0, 1, 26, 447)"><rect class="a" width="198" height="96" rx="15" transform="translate(10 10)"/></g><text class="b" transform="translate(50 482)"><tspan x="0" y="0">Junior Web Developer</tspan></text><g transform="translate(-10 24)"><rect class="c" width="53" height="15" rx="5" transform="translate(135 502)"/><text class="d" transform="translate(141 504)"><tspan x="0" y="10">Full Time</tspan></text></g><text class="e" transform="translate(50 537)"><tspan x="0" y="0">$80k-90k/yr</tspan></text><g transform="translate(0 3)"><text class="f" transform="translate(77 514)"><tspan x="0" y="0">Miami, FL</tspan></text><text class="g" transform="translate(76 500)"><tspan x="0" y="0">Company x</tspan></text><g transform="translate(31.132 474)"><g class="h" transform="translate(18.868 15)"><rect class="j" width="23" height="27"/><rect class="k" x="0.5" y="0.5" width="22" height="26"/></g><line class="i" x1="21.829" y1="25.829" transform="translate(19.26 15.26)"/><line class="i" y1="25.829" x2="21.829" transform="translate(19.26 15.26)"/></g></g></g></svg>