<svg xmlns="http://www.w3.org/2000/svg" width="381.91" height="363.263" viewBox="0 0 381.91 363.263"><defs><style>.a{fill:#e0eafe;stroke:#e0eafe;}.a,.b,.c{stroke-linecap:round;stroke-linejoin:round;stroke-width:2px;}.b,.c{fill:none;}.b{stroke:#f06239;}.c{stroke:#253cc3;}</style></defs><g transform="translate(-965.083 -136.826)"><g transform="translate(966.083 138.327)"><path class="a" d="M173.414,141.306V60.548a20.384,20.384,0,0,0-9.634-17.464L96.341,2.7a18.51,18.51,0,0,0-19.268,0L9.634,43.084A20.384,20.384,0,0,0,0,60.548v80.758A20.384,20.384,0,0,0,9.634,158.77l67.439,40.379a18.509,18.509,0,0,0,19.268,0L163.78,158.77a20.384,20.384,0,0,0,9.634-17.464Z" transform="matrix(0.515, 0.857, -0.857, 0.515, 290.008, 0)"/><path class="b" d="M173.414,141.306V60.548a20.384,20.384,0,0,0-9.634-17.464L96.341,2.7a18.51,18.51,0,0,0-19.268,0L9.634,43.084A20.384,20.384,0,0,0,0,60.548v80.758A20.384,20.384,0,0,0,9.634,158.77l67.439,40.379a18.509,18.509,0,0,0,19.268,0L163.78,158.77a20.384,20.384,0,0,0,9.634-17.464Z" transform="matrix(0.515, 0.857, -0.857, 0.515, 268.477, 107.654)"/><path class="c" d="M233.445,181.045V79.292a25.438,25.438,0,0,0-12.719-22L131.692,6.411a25.438,25.438,0,0,0-25.438,0L17.219,57.288a25.438,25.438,0,0,0-12.719,22V181.045a25.438,25.438,0,0,0,12.719,22l89.034,50.877a25.438,25.438,0,0,0,25.438,0l89.034-50.877A25.438,25.438,0,0,0,233.445,181.045Z" transform="translate(-4.5 39.675)"/></g></g></svg>