<svg xmlns="http://www.w3.org/2000/svg" width="100%" height="81"><defs><style>.a,.c,.e,.h{fill:none;}.a{stroke:#bbc5d1;}.b{fill:rgba(209,209,209,0);}.c{stroke:#253cc3;}.c,.e{stroke-linecap:round;stroke-linejoin:round;stroke-width:3px;}.d{fill:#253cc3;}.e{stroke:#fff;}.f{fill:rgba(37,60,195,0);}.g{stroke:none;}</style></defs><g class="a"><rect class="g" width="100%" height="81"/><rect class="h" x="0.5" y="0.5" width="100%" height="80"/></g><g transform="translate(-5997 1700)"><circle class="b" cx="31.5" cy="31.5" r="31.5" transform="translate(6281 -1691)"/><g transform="translate(6290 -1685.5)"><path class="c" d="M39.1,34.911V30.774A8.274,8.274,0,0,0,30.822,22.5H14.274A8.274,8.274,0,0,0,6,30.774v4.137" transform="translate(0 6.822)"/><path class="c" d="M28.548,12.774A8.274,8.274,0,1,1,20.274,4.5a8.274,8.274,0,0,1,8.274,8.274Z" transform="translate(2.274)"/></g></g><g transform="translate(-5997 1685)"><path class="d" d="M31.5,0A31.5,31.5,0,1,1,0,31.5,31.5,31.5,0,0,1,31.5,0Z" transform="translate(6029 -1678)"/><g transform="translate(6040.5 -1668.507)"><path class="e" d="M4.5,15.859,19.523,3,34.545,15.859V36.065a3.518,3.518,0,0,1-3.338,3.674H7.838A3.518,3.518,0,0,1,4.5,36.065Z" transform="translate(0 0)"/><path class="e" d="M13.5,33.833V18H23V33.833" transform="translate(1.273 5.906)"/></g></g><path class="f" d="M31.5,0A31.5,31.5,0,1,1,0,31.5,31.5,31.5,0,0,1,31.5,0Z" transform="translate(284 9)"/><g transform="translate(-5997 1701)"><g transform="translate(0 -17)"><path class="f" d="M30,0A30,30,0,1,1,0,30,30,30,0,0,1,30,0Z" transform="translate(6155 -1674)"/></g><g transform="translate(5683 -1765)"><g transform="translate(493 82)"><path class="d" d="M21.029,25.461H16.163V8.433A2.433,2.433,0,0,0,13.731,6H8.865a2.433,2.433,0,0,0,0,4.865H11.3v14.6H6.433a2.433,2.433,0,0,0,0,4.865h14.6a2.433,2.433,0,0,0,0-4.865Z" transform="translate(-4 8.596)"/><path class="d" d="M10.865,9.731A4.865,4.865,0,1,0,6,4.865,4.865,4.865,0,0,0,10.865,9.731Z" transform="translate(-1.135)"/></g></g></g></svg>