<svg xmlns="http://www.w3.org/2000/svg" width="171" height="39.717" viewBox="0 0 171 39.717"><defs><style>.a{fill:#333232;stroke:rgba(0,0,0,0);font-size:33px;font-family: Ubuntu, sans-serif;}.b{fill:#e0eafe;stroke:#e0eafe;}.b,.c,.d{stroke-linecap:round;stroke-linejoin:round;stroke-width:2px;}.c,.d{fill:none;}.c{stroke:#f06239;}.d{stroke:#253cc3;}</style></defs><g transform="translate(1 1)"><text class="a" transform="translate(0 31)"><tspan x="0" y="0" xml:space="preserve">Iron     Jobs</tspan></text><g transform="translate(62.083 0.732)"><path class="b" d="M17.615,14.354V6.15a2.071,2.071,0,0,0-.979-1.774L9.786.275a1.88,1.88,0,0,0-1.957,0l-6.85,4.1A2.071,2.071,0,0,0,0,6.15v8.2a2.071,2.071,0,0,0,.979,1.774l6.85,4.1a1.88,1.88,0,0,0,1.957,0l6.85-4.1A2.071,2.071,0,0,0,17.615,14.354Z" transform="translate(29.459 0) rotate(59)"/><path class="c" d="M17.615,14.354V6.15a2.071,2.071,0,0,0-.979-1.774L9.786.275a1.88,1.88,0,0,0-1.957,0l-6.85,4.1A2.071,2.071,0,0,0,0,6.15v8.2a2.071,2.071,0,0,0,.979,1.774l6.85,4.1a1.88,1.88,0,0,0,1.957,0l6.85-4.1A2.071,2.071,0,0,0,17.615,14.354Z" transform="translate(27.272 10.935) rotate(59)"/><path class="d" d="M27.756,21.088V10.752a2.584,2.584,0,0,0-1.292-2.235L17.42,3.349a2.584,2.584,0,0,0-2.584,0L5.792,8.517A2.584,2.584,0,0,0,4.5,10.752V21.088a2.584,2.584,0,0,0,1.292,2.235l9.044,5.168a2.584,2.584,0,0,0,2.584,0l9.044-5.168a2.584,2.584,0,0,0,1.292-2.235Z" transform="translate(-4.5 1.332)"/></g></g></svg>